<?xml version="1.0" standalone="no"?>
<!DOCTYPE svg PUBLIC "-//W3C//DTD SVG 20010904//EN"
 "http://www.w3.org/TR/2001/REC-SVG-20010904/DTD/svg10.dtd">
<svg version="1.0" xmlns="http://www.w3.org/2000/svg"
 width="256.000000pt" height="256.000000pt" viewBox="0 0 256.000000 256.000000"
 preserveAspectRatio="xMidYMid meet">

<g transform="translate(0.000000,256.000000) scale(0.100000,-0.100000)"
fill="#000000" stroke="none">
<path d="M0 1280 l0 -1280 1280 0 1280 0 0 1280 0 1280 -1280 0 -1280 0 0
-1280z m1885 810 c205 -117 205 -116 205 -335 0 -223 -3 -227 -244 -355 -91
-49 -101 -52 -154 -48 -47 4 -77 16 -177 72 -138 78 -150 88 -176 138 -15 29
-19 59 -19 133 l0 95 -262 -2 -263 -3 -3 -61 -3 -61 118 -66 c186 -104 193
-116 193 -327 0 -169 -7 -198 -61 -245 -19 -17 -83 -56 -142 -89 l-108 -59 3
-66 3 -66 263 -3 262 -2 0 110 c0 89 4 118 19 148 26 50 38 60 176 138 117 67
122 69 190 69 68 0 73 -2 190 -69 139 -79 151 -88 176 -138 16 -32 19 -60 19
-193 0 -133 -3 -161 -19 -193 -25 -49 -36 -58 -176 -137 -152 -86 -198 -94
-293 -46 -104 53 -230 130 -245 151 -13 18 -29 19 -340 22 -297 3 -328 5 -344
21 -15 15 -19 39 -21 137 -2 66 -7 120 -12 120 -16 0 -225 122 -254 149 -49
45 -56 75 -56 247 0 220 -5 213 263 363 l57 32 0 94 c0 104 10 137 47 154 16
7 127 11 328 11 l304 0 15 28 c20 39 38 53 160 122 143 81 141 80 211 77 52
-3 74 -12 170 -67z"/>
<path d="M1637 1926 c-74 -27 -117 -90 -117 -169 0 -82 33 -135 105 -168 67
-31 155 -19 208 29 56 50 73 152 37 222 -40 78 -148 118 -233 86z"/>
<path d="M640 1439 c-32 -13 -78 -56 -96 -91 -22 -42 -18 -126 9 -173 31 -54
96 -90 162 -89 193 3 255 254 85 345 -38 21 -118 24 -160 8z"/>
<path d="M1647 980 c-43 -13 -92 -55 -111 -93 -30 -65 -18 -157 27 -205 80
-86 222 -79 293 13 22 30 29 50 32 99 3 54 0 66 -26 107 -44 69 -139 104 -215
79z"/>
</g>
</svg>
